# xmcd
#
# Track frame offsets:
#	150
#	18867
#	33177
#	47865
#	67007
#	85415
#	104122
#	118397
#	133025
#	152112
#
# Disc length: 2273 seconds
#
# Revision: 1
# Processed by: cddbd v1.5.1PL0 Copyright (c) Steve Scherf et al.
# Submitted via: audiograbber 1.83.01
#
DISCID=8d08df0a
DTITLE=Priddis Pro Sound Series - 1334g
DYEAR=1900
DGENRE=Country
TTITLE0=Lone Star - Amazed
TTITLE1=Tim McGraw - Something Like That
TTITLE2=Dixie Chicks - Let 'er Rip
TTITLE3=Martina McBride - Whatever You Say
TTITLE4=Reba McEntire - Forever Love
TTITLE5=Lone Star - Amazed w/vocals
TTITLE6=Tim McGraw - Something Like That w/vocals
TTITLE7=Dixie Chicks - Let 'er Rip w/vocals
TTITLE8=Martina McBride - Whatever You Say w/vocals
TTITLE9=Reba McEntire - Forever Love w/vocals
EXTD=
EXTT0=
EXTT1=
EXTT2=
EXTT3=
EXTT4=
EXTT5=
EXTT6=
EXTT7=
EXTT8=
EXTT9=
PLAYORDER=
